<?xml version="1.0" encoding="UTF-8"?>
<svg id="Artwork" xmlns="http://www.w3.org/2000/svg" viewBox="0 0 1100 1100">
  <defs>
    <style>
      .cls-1 {
        fill: #fff;
      }
    </style>
  </defs>
  <g>
    <path class="cls-1" d="m458.98,226.7l-43.91-22.31c-3.04-1.54-6.86-.94-9.26,1.71-2.87,3.17-2.62,8.07.55,10.95l36.54,33.02c.91.81,1.99,1.56,3.12,2.14,7.04,3.58,15.65.77,19.24-6.27,3.57-7.04.76-15.65-6.28-19.23Z"/>
    <path class="cls-1" d="m481.05,141.11c-2.33-2.49-6.13-3.23-9.29-1.56-3.78,2-5.22,6.69-3.22,10.47l23.04,43.52c.57,1.07,1.32,2.15,2.19,3.08,5.39,5.77,14.44,6.08,20.21.69,5.77-5.39,6.09-14.45.69-20.22l-33.61-35.99Z"/>
    <path class="cls-1" d="m564.66,104.21c-1.34-3.14-4.65-5.13-8.2-4.64-4.23.59-7.19,4.5-6.6,8.74l6.76,48.78c.17,1.2.52,2.47,1,3.64,3.11,7.26,11.5,10.65,18.77,7.56,7.27-3.09,10.65-11.5,7.57-18.76l-19.3-45.31Z"/>
    <path class="cls-1" d="m649.74,90.98c-4.18-.9-8.31,1.77-9.2,5.95l-10.33,48.16c-.24,1.19-.35,2.49-.29,3.76.42,7.89,7.16,13.94,15.04,13.52,7.9-.42,13.95-7.16,13.52-15.05l-2.64-49.17c-.18-3.41-2.62-6.41-6.1-7.16Z"/>
    <path class="cls-1" d="m729.64,117.25l-26.15,41.72c-.64,1.03-1.2,2.22-1.56,3.43-2.3,7.56,1.96,15.55,9.52,17.85,7.55,2.3,15.54-1.96,17.84-9.52l14.34-47.11c.99-3.27-.27-6.92-3.3-8.82-3.63-2.27-8.4-1.18-10.69,2.45Z"/>
    <path class="cls-1" d="m817.32,168.17c-2.62-3.37-7.5-3.98-10.87-1.35l-38.86,30.26c-.95.75-1.88,1.68-2.65,2.69-4.74,6.31-3.47,15.28,2.85,20.03,6.32,4.74,15.28,3.48,20.02-2.84l29.6-39.37c2.04-2.73,2.11-6.6-.09-9.42Z"/>
  </g>
  <g>
    <g>
      <path class="cls-1" d="m432.47,799.62c-4.47-42.31-42.63-73.04-84.93-68.49-42.23,4.47-72.96,42.55-68.49,84.85,4.55,42.3,42.62,73.12,84.85,68.57,42.31-4.55,73.12-42.62,68.57-84.93Zm-73.67,36.24c-15.49,1.68-29.45-9.58-31.13-25.06-1.6-15.41,9.66-29.38,25.06-31.05,15.48-1.6,29.45,9.58,31.05,25.06,1.68,15.48-9.58,29.37-24.98,31.05Z"/>
      <path class="cls-1" d="m765.17,764.1c-4.55-42.23-42.7-73.04-84.93-68.49-42.31,4.47-73.04,42.62-68.57,84.93,4.55,42.23,42.63,73.04,84.93,68.48,42.3-4.47,73.04-42.62,68.57-84.93Zm-73.75,36.24c-15.48,1.68-29.37-9.58-31.05-24.98-1.68-15.49,9.58-29.46,25.06-31.13,15.48-1.59,29.37,9.66,31.05,25.06,1.6,15.48-9.58,29.38-25.06,31.05Z"/>
    </g>
    <polygon class="cls-1" points="725.74 296.34 695.8 333.86 674.49 360.68 651.1 332.98 628.11 305.84 725.74 296.34"/>
    <path class="cls-1" d="m858.32,424.46c-6.23,17.32-13.33,34.24-21.31,50.77-24.66,50.93-57.55,97.94-99.22,136.02-33.76,30.81-72.72,55.31-112.79,77.51-29.77,16.52-60.5,31.85-93.39,40.47-65.93,17.16-140.8,4.39-192.29-40.31-44.22-38.39-67.77-95.47-81.82-152.38-13.97-56.91-20.11-115.66-37.28-171.69-7.98-25.78-18.76-51.56-37.84-70.72-8.54-8.54-18.92-15.64-30.57-18.52-22.83-5.74-44.7,5.35-62.98,18.12-6.78,4.71-19.08,19.56-26.5,17-6.23-2.24-10.54-23.79-11.49-29.54-6.39-38.16,17.56-76.23,54.84-86.93,111.51-31.93,180.47,77.75,202.83,170.58,15.01,62.34,18.6,127.31,38.07,188.38,10.38,32.57,26.18,65.05,53.72,85.33,43.9,32.33,105.36,25.62,156.77,7.5,123.8-43.66,235.63-150.54,264.53-281.37-69.29,132.82-161.16,197.96-241.46,224.38,3.19-3.35,6.23-6.94,9.18-10.69,11.97-15.01,21.23-30.65,27.86-46.93,6.63-16.28,10.3-32.33,11.02-48.05l-68.97-81.5-44.3,55.63,41.91,49.57c-3.03,7.74-7.1,14.77-12.13,21.07-6.95,8.7-14.45,14.93-22.43,18.68-8.06,3.83-16.2,5.19-24.51,4.07-8.22-1.12-16.12-4.63-23.55-10.54-8.46-6.78-15.25-14.21-20.27-22.43-5.03-8.15-8.22-16.69-9.58-25.54-1.28-8.86-.72-17.8,1.84-26.74,2.47-8.86,7.1-17.56,13.73-25.86,7.18-9.02,15.01-15.81,23.47-20.27,8.46-4.47,19.08-6.63,31.93-6.47l.96-74.15c-19.32-.88-37.84,3.35-55.56,12.77-17.64,9.34-34.4,24.02-50.29,43.9-14.37,18.12-24.75,36.8-31.13,56.11-6.39,19.32-8.78,38.39-7.34,57.31,0,.32.08.72.08,1.04-22.35-76.71-22.03-177.2-22.03-177.2l180.96-17.56.64.8,10.3,12.21,123.24,145.99,111.43-139.92,7.82-9.82-26.34-31.37,99.54-9.66c55.4-3.59,9.82,116.14.72,140.97Z"/>
    <path class="cls-1" d="m98.1,961.84c310.98-75.38,632.75-103.63,952.08-89.87-139.23,1.05-278.1,9.89-416.05,28.17-98.17,12.42-196.34,29.49-292.92,50.26-76.73,16.61-154.42,35.63-229.02,58.79,0,0-14.1-47.35-14.1-47.35h0Z"/>
  </g>
</svg>